Coordinates
version=1
nRows=7
nColumns=40
inDegrees=yes

Units are S.I. units (second, meters, Newtons, ...)
Angles are in degrees.

endheader
time	pelvis_tilt	pelvis_list	pelvis_rotation	pelvis_tx	pelvis_ty	pelvis_tz	hip_flexion_r	hip_adduction_r	hip_rotation_r	knee_angle_r	knee_angle_r_beta	ankle_angle_r	subtalar_angle_r	mtp_angle_r	hip_flexion_l	hip_adduction_l	hip_rotation_l	knee_angle_l	knee_angle_l_beta	ankle_angle_l	subtalar_angle_l	mtp_angle_l	lumbar_extension	lumbar_bending	lumbar_rotation	arm_flex_r	arm_add_r	arm_rot_r	elbow_flex_r	pro_sup_r	wrist_flex_r	wrist_dev_r	arm_flex_l	arm_add_l	arm_rot_l	elbow_flex_l	pro_sup_l	wrist_flex_l	wrist_dev_l
     31.01464286	     -4.03200795	     -3.31456034	    -12.51818360	      1.00165114	      0.92978468	      0.48313182	     24.56117550	     -0.79252655	     -6.08912584	     22.08928800	     22.08928800	      6.80261903	      1.69572323	      1.94600064	      5.44258272	     -2.76283879	    -15.45623859	     17.06729050	     17.06729050	     16.73179974	    -13.19887421	     -0.41134462	    -10.53417715	      7.86103675	      0.24521052	    -19.81419752	    -11.30785837	    -19.70127029	     26.91563191	     46.90704467	      0.00000000	      0.00000000	     33.45322785	    -19.54878108	     -9.46111923	     75.67902951	     47.41868471	      0.00000000	      0.00000000
     31.03428571	     -4.10843307	     -3.15424314	    -12.86073531	      1.00197474	      0.92875997	      0.48683891	     24.28150547	     -0.57964808	     -6.46213674	     20.82714503	     20.82714503	      6.59869899	      3.20545518	      2.26918841	      4.80700394	     -2.70581004	    -15.84616095	     16.64993135	     16.64993135	     16.91621985	    -13.03480171	     -0.80005673	    -10.48237599	      7.66312186	      0.44875990	    -19.95245886	    -11.26229506	    -19.78615856	     26.92481571	     46.90749108	      0.00000000	      0.00000000	     34.34803424	    -19.63665210	     -9.74033405	     76.57056587	     47.46524641	      0.00000000	      0.00000000
     31.05392857	     -4.16346095	     -2.99122842	    -13.16195861	      1.00265103	      0.92760307	      0.49070460	     24.12043270	     -0.42231339	     -6.77895097	     20.28636088	     20.28636088	      6.48583881	      4.34689582	      2.24856698	      4.14713976	     -2.64988420	    -16.20274134	     16.26605419	     16.26605419	     17.07244820	    -12.86707697	     -1.35695662	    -10.42403034	      7.51365233	      0.61140819	    -19.95486623	    -11.27322745	    -19.95935358	     26.96116923	     46.91243045	      0.00000000	      0.00000000	     34.99030130	    -19.66082521	    -10.17387152	     77.59836373	     47.52657984	      0.00000000	      0.00000000
     31.07357143	     -4.35194860	     -2.86136143	    -13.38054165	      1.00356634	      0.92622507	      0.49478124	     24.16322842	     -0.17068153	     -6.72832991	     20.26094042	     20.26094042	      6.46917535	      4.49110226	      2.18937657	      3.75603928	     -2.68620193	    -16.32057848	     16.16328403	     16.16328403	     17.38252700	    -12.95942681	     -1.48272698	    -10.11686927	      7.45826650	      0.66477552	    -19.78090891	    -11.33613392	    -19.98478096	     27.01599519	     46.91288049	      0.00000000	      0.00000000	     35.58049871	    -19.84347634	    -10.31321034	     77.91301432	     47.54661501	      0.00000000	      0.00000000
     31.09321429	     -4.40650586	     -2.78260431	    -13.54589255	      1.00483959	      0.92514527	      0.49906942	     24.05409309	      0.05682115	     -6.72878617	     20.57821114	     20.57821114	      6.54170567	      4.44179998	      1.89428681	      3.12901278	     -2.74578011	    -16.46625456	     15.93973912	     15.93973912	     17.64909974	    -12.90601640	     -1.58074075	    -10.00087955	      7.39895591	      0.81830217	    -19.49065935	    -11.42394500	    -20.03021897	     27.05024707	     46.91613648	      0.00000000	      0.00000000	     36.17167282	    -19.88918530	    -10.52220260	     78.44657969	     47.57620994	      0.00000000	      0.00000000
     31.11285714	     -4.37817246	     -2.66124903	    -13.64776782	      1.00657713	      0.92422903	      0.50360233	     23.78539898	      0.27640757	     -6.29810266	     20.94244378	     20.94244378	      5.92232029	      3.52671245	     -0.90667805	      2.36624976	     -2.76917782	    -16.73325607	     15.67233500	     15.67233500	     18.00410988	    -12.49788196	     -1.61834876	     -9.91970066	      7.28157917	      0.49566245	    -18.62875657	    -11.53847972	    -20.69215908	     26.35849940	     46.98265380	      0.00000000	      0.00000000	     35.73251916	    -19.92159070	    -12.01774557	     80.46006198	     47.74008921	      0.00000000	      0.00000000
     31.13250000	     -4.39932326	     -2.59912642	    -13.66729320	      1.00836433	      0.92336812	      0.50827367	     23.70333367	      0.47448910	     -6.03799137	     21.81990002	     21.81990002	      6.28988743	      2.88660429	     -1.36886217	      1.72665903	     -2.87510321	    -16.73399563	     15.53418835	     15.53418835	     18.26768293	    -12.44303463	     -1.48469986	     -9.74547377	      7.24800604	      0.60875122	    -18.30208015	    -11.65121214	    -20.74249822	     26.33553810	     46.98773357	      0.00000000	      0.00000000	     36.04607021	    -19.94676208	    -12.05717468	     80.64931781	     47.75229828	      0.00000000	      0.00000000
